<mxfile host="app.diagrams.net" modified="2021-12-15T01:35:35.652Z" agent="5.0 (Windows NT 10.0; Win64; x64) AppleWebKit/537.36 (KHTML, like Gecko) Chrome/96.0.4664.93 Safari/537.36" etag="LpfmjXFgHXV_ucY8Zds1" version="15.9.6" type="github">
  <diagram name="Page-1" id="9361dd3d-8414-5efd-6122-117bd74ce7a7">
    <mxGraphModel dx="2426" dy="1320" grid="1" gridSize="10" guides="1" tooltips="1" connect="1" arrows="1" fold="1" page="0" pageScale="1.5" pageWidth="826" pageHeight="1169" background="none" math="0" shadow="0">
      <root>
        <mxCell id="0" />
        <mxCell id="1" parent="0" />
        <mxCell id="69" value="" style="fillColor=#DEE8FF;strokeColor=none" parent="1" vertex="1">
          <mxGeometry x="1650" y="35" width="1570" height="800" as="geometry" />
        </mxCell>
        <mxCell id="20" value="" style="fillColor=#CCD5EB" parent="1" vertex="1">
          <mxGeometry x="140" y="410" width="1460" height="390" as="geometry" />
        </mxCell>
        <mxCell id="81" value="" style="edgeStyle=elbowEdgeStyle;elbow=horizontal;endArrow=none;dashed=1" parent="1" edge="1">
          <mxGeometry x="1460" y="437.8935185185186" width="100" height="100" as="geometry">
            <mxPoint x="1354.5" y="610" as="sourcePoint" />
            <mxPoint x="1354.5" y="770" as="targetPoint" />
          </mxGeometry>
        </mxCell>
        <mxCell id="2" value="" style="fillColor=#CC4125;strokeColor=#660000" parent="1" vertex="1">
          <mxGeometry x="200" y="150" width="10" height="130" as="geometry" />
        </mxCell>
        <mxCell id="3" value="validate()" style="edgeStyle=none;verticalLabelPosition=top;verticalAlign=bottom;labelPosition=left;align=right" parent="1" edge="1">
          <mxGeometry x="110" y="49.5" width="100" height="100" as="geometry">
            <mxPoint x="110" y="149.5" as="sourcePoint" />
            <mxPoint x="200" y="149.5" as="targetPoint" />
          </mxGeometry>
        </mxCell>
        <mxCell id="4" value="Client" style="shadow=1;fillColor=#A2C4C9;strokeColor=none" parent="1" vertex="1">
          <mxGeometry x="152.5" y="60" width="105" height="50" as="geometry" />
        </mxCell>
        <mxCell id="6" value="" style="fillColor=#CC4125;strokeColor=#660000" parent="1" vertex="1">
          <mxGeometry x="342.5" y="180" width="10" height="80" as="geometry" />
        </mxCell>
        <mxCell id="7" value="&lt;&lt;javascript&gt;&gt;&#xa;:Comments" style="shadow=1;fillColor=#A2C4C9;strokeColor=none" parent="1" vertex="1">
          <mxGeometry x="295" y="60" width="105" height="50" as="geometry" />
        </mxCell>
        <mxCell id="8" value="" style="edgeStyle=none;endArrow=none;dashed=1" parent="1" source="7" target="6" edge="1">
          <mxGeometry x="272.3350694444445" y="165" width="100" height="100" as="geometry">
            <mxPoint x="347.2588734567901" y="110" as="sourcePoint" />
            <mxPoint x="347.5761959876544" y="165" as="targetPoint" />
          </mxGeometry>
        </mxCell>
        <mxCell id="9" value="validate()" style="edgeStyle=none;verticalLabelPosition=top;verticalAlign=bottom" parent="1" edge="1">
          <mxGeometry x="220" y="92" width="100" height="100" as="geometry">
            <mxPoint x="210" y="179.5" as="sourcePoint" />
            <mxPoint x="340" y="179.5" as="targetPoint" />
          </mxGeometry>
        </mxCell>
        <mxCell id="11" value="" style="edgeStyle=none;verticalLabelPosition=top;verticalAlign=bottom;endArrow=none;startArrow=classic;dashed=1" parent="1" edge="1">
          <mxGeometry x="220" y="172.25887345679013" width="100" height="100" as="geometry">
            <mxPoint x="210" y="259.7588734567901" as="sourcePoint" />
            <mxPoint x="340" y="259.7588734567901" as="targetPoint" />
          </mxGeometry>
        </mxCell>
        <mxCell id="12" value="" style="edgeStyle=none;verticalLabelPosition=top;verticalAlign=bottom;labelPosition=left;align=right;endArrow=none;startArrow=classic;dashed=1" parent="1" edge="1">
          <mxGeometry x="110" y="179.75887345679013" width="100" height="100" as="geometry">
            <mxPoint x="110" y="279.7588734567901" as="sourcePoint" />
            <mxPoint x="200" y="279.7588734567901" as="targetPoint" />
          </mxGeometry>
        </mxCell>
        <mxCell id="13" value="&lt;&lt;create&gt;&gt;" style="edgeStyle=none;verticalLabelPosition=top;verticalAlign=bottom;dashed=1" parent="1" edge="1">
          <mxGeometry x="385.45524691358025" y="113.91550925925924" width="100" height="100" as="geometry">
            <mxPoint x="352.5" y="201.20563271604937" as="sourcePoint" />
            <mxPoint x="462.5" y="201.20563271604937" as="targetPoint" />
          </mxGeometry>
        </mxCell>
        <mxCell id="15" value="&lt;&lt;javascript&gt;&gt;&#xa;:Proxy" style="shadow=1;fillColor=#A2C4C9;strokeColor=none" parent="1" vertex="1">
          <mxGeometry x="462.2839506172839" y="169.99999999999997" width="105" height="50" as="geometry" />
        </mxCell>
        <mxCell id="16" value="" style="edgeStyle=none;endArrow=none" parent="1" source="15" target="17" edge="1">
          <mxGeometry x="437.042824074074" y="270" width="100" height="100" as="geometry">
            <mxPoint x="514.542824074074" y="219.99999999999997" as="sourcePoint" />
            <mxPoint x="514.542824074074" y="239.99999999999997" as="targetPoint" />
          </mxGeometry>
        </mxCell>
        <mxCell id="17" value="" style="fillColor=#CC4125;strokeColor=#660000" parent="1" vertex="1">
          <mxGeometry x="509.7839506172839" y="244.3942901234568" width="10" height="130" as="geometry" />
        </mxCell>
        <mxCell id="19" value="&lt;&lt;ajax&gt;&gt;" style="edgeStyle=elbowEdgeStyle;elbow=vertical;verticalLabelPosition=top;verticalAlign=bottom" parent="1" source="6" target="17" edge="1">
          <mxGeometry x="350" y="290" width="100" height="100" as="geometry">
            <mxPoint x="350" y="390" as="sourcePoint" />
            <mxPoint x="450" y="290" as="targetPoint" />
          </mxGeometry>
        </mxCell>
        <mxCell id="21" value="" style="fillColor=#CC4125;strokeColor=#660000" parent="1" vertex="1">
          <mxGeometry x="670" y="269.3942901234568" width="10" height="80" as="geometry" />
        </mxCell>
        <mxCell id="22" value="&lt;&lt;servlet&gt;&gt;&#xa;:CVSServlet" style="shadow=1;fillColor=#A2C4C9;strokeColor=none" parent="1" vertex="1">
          <mxGeometry x="622.5" y="60" width="105" height="50" as="geometry" />
        </mxCell>
        <mxCell id="23" value="" style="edgeStyle=none;endArrow=none;dashed=1" parent="1" source="22" target="21" edge="1">
          <mxGeometry x="614.4878472222224" y="174.99999999999997" width="100" height="100" as="geometry">
            <mxPoint x="674.6527777777778" y="110" as="sourcePoint" />
            <mxPoint x="674.6527777777778" y="260" as="targetPoint" />
          </mxGeometry>
        </mxCell>
        <mxCell id="24" value="&lt;&lt;service&gt;&gt;&#xa;:CVSService" style="shadow=1;fillColor=#A2C4C9;strokeColor=none" parent="1" vertex="1">
          <mxGeometry x="750" y="60" width="105" height="50" as="geometry" />
        </mxCell>
        <mxCell id="25" value="" style="edgeStyle=none;endArrow=none;dashed=1" parent="1" source="24" target="26" edge="1">
          <mxGeometry x="727.3350694444446" y="165" width="100" height="100" as="geometry">
            <mxPoint x="802.2588734567901" y="110" as="sourcePoint" />
            <mxPoint x="802.5761959876544" y="165" as="targetPoint" />
          </mxGeometry>
        </mxCell>
        <mxCell id="26" value="" style="fillColor=#CC4125;strokeColor=#660000" parent="1" vertex="1">
          <mxGeometry x="797.4999999999999" y="289.3942901234568" width="10" height="40" as="geometry" />
        </mxCell>
        <mxCell id="27" value="&lt;&lt;ajax&gt;&gt;" style="edgeStyle=elbowEdgeStyle;elbow=vertical;verticalLabelPosition=top;verticalAlign=bottom" parent="1" source="17" target="21" edge="1">
          <mxGeometry x="540" y="270" width="100" height="100" as="geometry">
            <mxPoint x="540" y="370" as="sourcePoint" />
            <mxPoint x="640" y="270" as="targetPoint" />
            <Array as="points">
              <mxPoint x="590" y="270" />
            </Array>
          </mxGeometry>
        </mxCell>
        <mxCell id="28" value="errors" style="edgeStyle=elbowEdgeStyle;elbow=vertical;dashed=1;verticalLabelPosition=bottom;verticalAlign=top" parent="1" source="21" target="17" edge="1">
          <mxGeometry x="550" y="280" width="100" height="100" as="geometry">
            <mxPoint x="529.7839506172838" y="280" as="sourcePoint" />
            <mxPoint x="680" y="280" as="targetPoint" />
            <Array as="points">
              <mxPoint x="593" y="348" />
            </Array>
          </mxGeometry>
        </mxCell>
        <mxCell id="30" value="&lt;&lt;javascript&gt;&gt;&#xa;:GimqRequest&#xa;Batch" style="shadow=1;fillColor=#A2C4C9;strokeColor=none" parent="1" vertex="1">
          <mxGeometry x="952.5" y="60" width="105" height="50" as="geometry" />
        </mxCell>
        <mxCell id="33" value="" style="edgeStyle=elbowEdgeStyle;elbow=horizontal;endArrow=none;dashed=1" parent="1" source="4" target="2" edge="1">
          <mxGeometry x="230.00000000000003" y="310" width="100" height="100" as="geometry">
            <mxPoint x="230.00000000000003" y="410" as="sourcePoint" />
            <mxPoint x="330" y="310" as="targetPoint" />
          </mxGeometry>
        </mxCell>
        <mxCell id="34" value="validate()" style="edgeStyle=elbowEdgeStyle;elbow=vertical;verticalLabelPosition=top;verticalAlign=bottom" parent="1" edge="1">
          <mxGeometry x="550" y="261.7361111111111" width="100" height="100" as="geometry">
            <mxPoint x="680" y="291.1304012345679" as="sourcePoint" />
            <mxPoint x="797.4999999999999" y="291.1304012345679" as="targetPoint" />
            <Array as="points" />
          </mxGeometry>
        </mxCell>
        <mxCell id="35" value="errors" style="edgeStyle=elbowEdgeStyle;elbow=vertical;dashed=1;verticalLabelPosition=bottom;verticalAlign=top" parent="1" edge="1">
          <mxGeometry x="560" y="309.65277777777777" width="100" height="100" as="geometry">
            <mxPoint x="797.4999999999999" y="329.0470679012346" as="sourcePoint" />
            <mxPoint x="680" y="329.0470679012346" as="targetPoint" />
            <Array as="points" />
          </mxGeometry>
        </mxCell>
        <mxCell id="38" value="" style="edgeStyle=elbowEdgeStyle;elbow=horizontal;endArrow=none;dashed=1" parent="1" edge="1">
          <mxGeometry x="932.2588734567901" y="240" width="100" height="100" as="geometry">
            <mxPoint x="802.2588734567901" y="329.3942901234568" as="sourcePoint" />
            <mxPoint x="802.2588734567901" y="370" as="targetPoint" />
            <Array as="points">
              <mxPoint x="802.2588734567901" y="350" />
            </Array>
          </mxGeometry>
        </mxCell>
        <mxCell id="39" value="" style="ellipse;fillColor=none" parent="1" vertex="1">
          <mxGeometry x="802.5000000000001" y="304.3942901234568" width="9.999999999999886" height="10" as="geometry" />
        </mxCell>
        <mxCell id="40" value=" - user&#xa; validation&#xa;&#xa; - password check" style="shape=note;align=left" parent="1" vertex="1">
          <mxGeometry x="829.9729938271605" y="180.17361111111111" width="120.02700617283949" height="109.82638888888889" as="geometry" />
        </mxCell>
        <mxCell id="41" value="" style="edgeStyle=none;endArrow=none;dashed=1" parent="1" source="40" target="39" edge="1">
          <mxGeometry x="1030" y="180" width="100" height="100" as="geometry">
            <mxPoint x="1030" y="280" as="sourcePoint" />
            <mxPoint x="1130" y="180" as="targetPoint" />
          </mxGeometry>
        </mxCell>
        <mxCell id="42" value="" style="fillColor=#CC4125;strokeColor=#660000" parent="1" vertex="1">
          <mxGeometry x="200" y="360" width="10" height="220" as="geometry" />
        </mxCell>
        <mxCell id="43" value="             &lt;&lt;callback&gt;&gt;                                " style="edgeStyle=elbowEdgeStyle;elbow=vertical;dashed=0;verticalLabelPosition=top;verticalAlign=bottom;align=right" parent="1" source="17" target="42" edge="1">
          <mxGeometry x="190" y="329.75887345679007" width="100" height="100" as="geometry">
            <mxPoint x="500" y="310" as="sourcePoint" />
            <mxPoint x="220" y="370" as="targetPoint" />
            <Array as="points" />
          </mxGeometry>
        </mxCell>
        <mxCell id="44" value="" style="edgeStyle=none;dashed=1;endArrow=none" parent="1" source="2" target="42" edge="1">
          <mxGeometry x="50" y="300" width="100" height="100" as="geometry">
            <mxPoint x="50" y="400" as="sourcePoint" />
            <mxPoint x="150" y="300" as="targetPoint" />
          </mxGeometry>
        </mxCell>
        <mxCell id="46" value="" style="edgeStyle=elbowEdgeStyle;elbow=vertical;endArrow=none" parent="1" source="42" edge="1">
          <mxGeometry x="60" y="310" width="100" height="100" as="geometry">
            <mxPoint x="60" y="410" as="sourcePoint" />
            <mxPoint x="150" y="360" as="targetPoint" />
          </mxGeometry>
        </mxCell>
        <mxCell id="47" value="{100..600ms}" style="edgeStyle=elbowEdgeStyle;elbow=horizontal;startArrow=open;endArrow=open;labelPosition=left;align=right" parent="1" edge="1">
          <mxGeometry x="61.20563271604938" y="290" width="100" height="100" as="geometry">
            <mxPoint x="181.20563271604937" y="280" as="sourcePoint" />
            <mxPoint x="181.20563271604937" y="360" as="targetPoint" />
          </mxGeometry>
        </mxCell>
        <mxCell id="48" value="" style="fillColor=#CC4125;strokeColor=#660000" parent="1" vertex="1">
          <mxGeometry x="342.5" y="464.1666666666667" width="10" height="95.83333333333331" as="geometry" />
        </mxCell>
        <mxCell id="49" value="" style="fillColor=#CC4125;strokeColor=#660000" parent="1" vertex="1">
          <mxGeometry x="1000" y="468.3333333333333" width="10" height="81.66666666666669" as="geometry" />
        </mxCell>
        <mxCell id="50" value="" style="edgeStyle=none;endArrow=none;dashed=1" parent="1" source="30" target="49" edge="1">
          <mxGeometry x="956.5711805555559" y="205" width="100" height="100" as="geometry">
            <mxPoint x="1031.7361111111113" y="150" as="sourcePoint" />
            <mxPoint x="1031.7361111111113" y="329.3942901234568" as="targetPoint" />
          </mxGeometry>
        </mxCell>
        <mxCell id="51" value="post_comments()" style="edgeStyle=elbowEdgeStyle;elbow=vertical;verticalLabelPosition=top;verticalAlign=bottom" parent="1" edge="1">
          <mxGeometry x="212.5" y="469.58333333333337" width="100" height="100" as="geometry">
            <mxPoint x="210" y="469.58333333333337" as="sourcePoint" />
            <mxPoint x="342.5" y="469.58333333333337" as="targetPoint" />
            <Array as="points" />
          </mxGeometry>
        </mxCell>
        <mxCell id="52" value="" style="edgeStyle=none;endArrow=none;dashed=1" parent="1" source="6" target="48" edge="1">
          <mxGeometry x="376.5711805555559" y="339.6971450617284" width="100" height="100" as="geometry">
            <mxPoint x="451.7361111111112" y="284.6971450617284" as="sourcePoint" />
            <mxPoint x="451.7361111111112" y="464.0914351851852" as="targetPoint" />
          </mxGeometry>
        </mxCell>
        <mxCell id="53" value="BeginRequest()" style="edgeStyle=elbowEdgeStyle;elbow=vertical;verticalLabelPosition=top;verticalAlign=bottom" parent="1" edge="1">
          <mxGeometry x="530" y="436.8055555555556" width="100" height="100" as="geometry">
            <mxPoint x="352.5" y="477.56944444444446" as="sourcePoint" />
            <mxPoint x="1000" y="477.56944444444446" as="targetPoint" />
            <Array as="points" />
          </mxGeometry>
        </mxCell>
        <mxCell id="54" value="" style="edgeStyle=elbowEdgeStyle;elbow=vertical;dashed=1;verticalLabelPosition=bottom;verticalAlign=top" parent="1" edge="1">
          <mxGeometry x="530" y="549.0779320987654" width="100" height="100" as="geometry">
            <mxPoint x="1000" y="541.7361111111111" as="sourcePoint" />
            <mxPoint x="352.49999999999994" y="541.7361111111111" as="targetPoint" />
            <Array as="points" />
          </mxGeometry>
        </mxCell>
        <mxCell id="55" value="&lt;&lt;javascript&gt;&gt;&#xa;:Proxy" style="shadow=1;fillColor=#A2C4C9;strokeColor=none" parent="1" vertex="1">
          <mxGeometry x="1090" y="462.08333333333337" width="105" height="50" as="geometry" />
        </mxCell>
        <mxCell id="56" value="" style="edgeStyle=none;endArrow=none;dashed=1" parent="1" source="55" target="57" edge="1">
          <mxGeometry x="1204.0711805555559" y="380.08680555555554" width="100" height="100" as="geometry">
            <mxPoint x="1279.2361111111113" y="325.08680555555554" as="sourcePoint" />
            <mxPoint x="1350" y="445.08680555555554" as="targetPoint" />
          </mxGeometry>
        </mxCell>
        <mxCell id="57" value="" style="fillColor=#CC4125;strokeColor=#660000" parent="1" vertex="1">
          <mxGeometry x="1137.5" y="530" width="10" height="90" as="geometry" />
        </mxCell>
        <mxCell id="58" value="" style="fillColor=#CC4125;strokeColor=#660000" parent="1" vertex="1">
          <mxGeometry x="1350" y="540" width="10" height="70" as="geometry" />
        </mxCell>
        <mxCell id="60" value="&lt;&lt;create&gt;&gt;" style="edgeStyle=elbowEdgeStyle;elbow=vertical;verticalLabelPosition=top;verticalAlign=bottom;dashed=1" parent="1" source="49" target="55" edge="1">
          <mxGeometry x="901.25" y="322.5" width="100" height="100" as="geometry">
            <mxPoint x="1031.25" y="351.8942901234568" as="sourcePoint" />
            <mxPoint x="1148.75" y="351.8942901234568" as="targetPoint" />
            <Array as="points" />
          </mxGeometry>
        </mxCell>
        <mxCell id="61" value="&lt;&lt;ajax&gt;&gt;" style="edgeStyle=elbowEdgeStyle;elbow=vertical;verticalLabelPosition=top;verticalAlign=bottom" parent="1" source="49" target="57" edge="1">
          <mxGeometry x="1065" y="359.5" width="100" height="100" as="geometry">
            <mxPoint x="1044.7839506172838" y="359.5" as="sourcePoint" />
            <mxPoint x="1195" y="359.5" as="targetPoint" />
            <Array as="points" />
          </mxGeometry>
        </mxCell>
        <mxCell id="62" value="postComments()" style="edgeStyle=elbowEdgeStyle;elbow=vertical;verticalLabelPosition=top;verticalAlign=bottom" parent="1" edge="1">
          <mxGeometry x="1225" y="309.5" width="100" height="100" as="geometry">
            <mxPoint x="1147.5" y="542.5" as="sourcePoint" />
            <mxPoint x="1350" y="542.5" as="targetPoint" />
            <Array as="points" />
          </mxGeometry>
        </mxCell>
        <mxCell id="63" value="&lt;&lt;json&gt;&gt;" style="edgeStyle=elbowEdgeStyle;elbow=vertical;dashed=1;verticalLabelPosition=bottom;verticalAlign=top" parent="1" edge="1">
          <mxGeometry x="1075" y="396" width="100" height="100" as="geometry">
            <mxPoint x="1350" y="606.5" as="sourcePoint" />
            <mxPoint x="1147.5" y="606.5" as="targetPoint" />
            <Array as="points" />
          </mxGeometry>
        </mxCell>
        <mxCell id="64" value="&lt;&lt;service&gt;&gt;&#xa;:GimqService" style="shadow=1;fillColor=#A2C4C9;strokeColor=none" parent="1" vertex="1">
          <mxGeometry x="1302.5" y="60" width="105" height="50" as="geometry" />
        </mxCell>
        <mxCell id="65" value="" style="edgeStyle=none;endArrow=none;dashed=1" parent="1" source="64" target="58" edge="1">
          <mxGeometry x="1174.0711805555559" y="210" width="100" height="100" as="geometry">
            <mxPoint x="1222.5" y="115" as="sourcePoint" />
            <mxPoint x="1222.5" y="445" as="targetPoint" />
          </mxGeometry>
        </mxCell>
        <mxCell id="66" value="" style="fillColor=#CC4125;strokeColor=#660000" parent="1" vertex="1">
          <mxGeometry x="200" y="600" width="10" height="130" as="geometry" />
        </mxCell>
        <mxCell id="67" value="" style="edgeStyle=elbowEdgeStyle;elbow=vertical;dashed=1;verticalLabelPosition=bottom;verticalAlign=top" parent="1" edge="1">
          <mxGeometry x="507.50000000000006" y="664.3418209876543" width="100" height="100" as="geometry">
            <mxPoint x="342.5" y="549.5" as="sourcePoint" />
            <mxPoint x="210" y="549.5" as="targetPoint" />
            <Array as="points" />
          </mxGeometry>
        </mxCell>
        <mxCell id="68" value="&lt;&lt;callback&gt;&gt;" style="edgeStyle=elbowEdgeStyle;elbow=vertical;dashed=1;verticalLabelPosition=bottom;verticalAlign=bottom" parent="1" source="57" target="66" edge="1">
          <mxGeometry x="540" y="559.0779320987654" width="100" height="100" as="geometry">
            <mxPoint x="1010" y="551.7361111111111" as="sourcePoint" />
            <mxPoint x="362.49999999999994" y="551.7361111111111" as="targetPoint" />
            <Array as="points" />
          </mxGeometry>
        </mxCell>
        <mxCell id="71" value="조각 거래 등록" style="rounded=1;fontStyle=1;fillColor=#FFD966;strokeColor=none" parent="1" vertex="1">
          <mxGeometry x="1660" y="40" width="150" height="30" as="geometry" />
        </mxCell>
        <mxCell id="72" value="opt" style="rounded=1;fontStyle=1;fillColor=#FFD966;strokeColor=none" parent="1" vertex="1">
          <mxGeometry x="152.5" y="420" width="87.5" height="30" as="geometry" />
        </mxCell>
        <mxCell id="74" value="Handle errors from Gimq" style="fillColor=#BFC8DB" parent="1" vertex="1">
          <mxGeometry x="190" y="625" width="310" height="60.55555555555554" as="geometry" />
        </mxCell>
        <mxCell id="75" value="ref" style="rounded=1;fontStyle=1;fillColor=#FFD966;strokeColor=none" parent="1" vertex="1">
          <mxGeometry x="196.25" y="632.8935185185186" width="53.75" height="25" as="geometry" />
        </mxCell>
        <mxCell id="76" value="" style="align=left;fillColor=#BFC8DB" parent="1" vertex="1">
          <mxGeometry x="189.99999999999997" y="699.7222222222223" width="1201.1944444444443" height="60.55555555555554" as="geometry" />
        </mxCell>
        <mxCell id="77" value="ref" style="rounded=1;fontStyle=1;fillColor=#FFD966;strokeColor=none" parent="1" vertex="1">
          <mxGeometry x="196.24999999999997" y="707.6157407407409" width="53.75" height="25" as="geometry" />
        </mxCell>
        <mxCell id="78" value="Request all changes" style="text;align=left" parent="1" vertex="1">
          <mxGeometry x="268.05555555555554" y="720.1157407407408" width="351.80555555555554" height="26" as="geometry" />
        </mxCell>
        <mxCell id="82" value="" style="edgeStyle=elbowEdgeStyle;elbow=vertical;endArrow=none" parent="1" edge="1">
          <mxGeometry x="59.999999999999986" y="419.7106481481482" width="100" height="100" as="geometry">
            <mxPoint x="200" y="469.7106481481482" as="sourcePoint" />
            <mxPoint x="149.99999999999997" y="469.7106481481482" as="targetPoint" />
          </mxGeometry>
        </mxCell>
        <mxCell id="83" value="" style="edgeStyle=elbowEdgeStyle;elbow=vertical;endArrow=none" parent="1" edge="1">
          <mxGeometry x="60" y="499.71064814814815" width="100" height="100" as="geometry">
            <mxPoint x="200.00000000000003" y="549.7106481481482" as="sourcePoint" />
            <mxPoint x="150" y="549.7106481481482" as="targetPoint" />
          </mxGeometry>
        </mxCell>
        <mxCell id="84" value="" style="edgeStyle=elbowEdgeStyle;elbow=vertical;endArrow=none" parent="1" edge="1">
          <mxGeometry x="59.999999999999986" y="559.7106481481482" width="100" height="100" as="geometry">
            <mxPoint x="200" y="609.7106481481482" as="sourcePoint" />
            <mxPoint x="149.99999999999997" y="609.7106481481482" as="targetPoint" />
          </mxGeometry>
        </mxCell>
        <mxCell id="85" value="" style="edgeStyle=elbowEdgeStyle;elbow=vertical;endArrow=none" parent="1" edge="1">
          <mxGeometry x="49.99999999999999" y="649.4328703703704" width="100" height="100" as="geometry">
            <mxPoint x="190.00000000000003" y="699.4328703703704" as="sourcePoint" />
            <mxPoint x="140" y="699.4328703703704" as="targetPoint" />
          </mxGeometry>
        </mxCell>
        <mxCell id="86" value="" style="edgeStyle=elbowEdgeStyle;elbow=vertical;endArrow=none" parent="1" edge="1">
          <mxGeometry x="49.99999999999993" y="709.9884259259259" width="100" height="100" as="geometry">
            <mxPoint x="189.99999999999994" y="759.9884259259259" as="sourcePoint" />
            <mxPoint x="139.99999999999994" y="759.9884259259259" as="targetPoint" />
          </mxGeometry>
        </mxCell>
        <mxCell id="87" value="{5..50ms}" style="edgeStyle=elbowEdgeStyle;elbow=horizontal;startArrow=open;endArrow=open;labelPosition=left;align=right" parent="1" edge="1">
          <mxGeometry x="41.44675925925927" y="479.1666666666667" width="100" height="100" as="geometry">
            <mxPoint x="161.44675925925927" y="469.1666666666667" as="sourcePoint" />
            <mxPoint x="161.44675925925927" y="549.1666666666667" as="targetPoint" />
          </mxGeometry>
        </mxCell>
        <mxCell id="88" value="{1..500ms}" style="edgeStyle=elbowEdgeStyle;elbow=horizontal;startArrow=open;endArrow=open;labelPosition=left;align=right" parent="1" edge="1">
          <mxGeometry x="42.89351851851853" y="560" width="100" height="100" as="geometry">
            <mxPoint x="161.44675925925927" y="550" as="sourcePoint" />
            <mxPoint x="161.44675925925927" y="610" as="targetPoint" />
          </mxGeometry>
        </mxCell>
        <mxCell id="89" value="{10..50ms}" style="edgeStyle=elbowEdgeStyle;elbow=horizontal;startArrow=open;endArrow=open;labelPosition=left;align=right" parent="1" edge="1">
          <mxGeometry width="100" height="100" as="geometry">
            <mxPoint x="153.94675925925927" y="700.2777777777778" as="sourcePoint" />
            <mxPoint x="153.94675925925927" y="760.2777777777778" as="targetPoint" />
            <mxPoint x="-4.236111111111107" y="-0.2777777777777883" as="offset" />
          </mxGeometry>
        </mxCell>
        <mxCell id="AhJz03Bt-B3YiPbpUyde-89" value="Client" style="shadow=1;fillColor=#A2C4C9;strokeColor=none;fontSize=16;" parent="1" vertex="1">
          <mxGeometry x="1795" y="90" width="105" height="50" as="geometry" />
        </mxCell>
        <mxCell id="AhJz03Bt-B3YiPbpUyde-90" value="Backend" style="shadow=1;fillColor=#A2C4C9;strokeColor=none;fontSize=16;" parent="1" vertex="1">
          <mxGeometry x="2168" y="90" width="105" height="50" as="geometry" />
        </mxCell>
        <mxCell id="AhJz03Bt-B3YiPbpUyde-91" value="Database" style="shadow=1;fillColor=#A2C4C9;strokeColor=none;fontSize=16;" parent="1" vertex="1">
          <mxGeometry x="2545" y="90" width="105" height="50" as="geometry" />
        </mxCell>
        <mxCell id="AhJz03Bt-B3YiPbpUyde-92" value="Message&#xa;Queue" style="shadow=1;fillColor=#A2C4C9;strokeColor=none;fontSize=16;" parent="1" vertex="1">
          <mxGeometry x="2925" y="90" width="105" height="50" as="geometry" />
        </mxCell>
        <mxCell id="AhJz03Bt-B3YiPbpUyde-94" value="조각 거래 등록 요청" style="edgeStyle=elbowEdgeStyle;elbow=vertical;verticalLabelPosition=top;verticalAlign=bottom;fontSize=16;" parent="1" edge="1">
          <mxGeometry x="1924.5" y="-38.120000000000005" width="100" height="100" as="geometry">
            <mxPoint x="1847" y="194.88" as="sourcePoint" />
            <mxPoint x="2210" y="195" as="targetPoint" />
            <Array as="points" />
          </mxGeometry>
        </mxCell>
        <mxCell id="AhJz03Bt-B3YiPbpUyde-95" value="" style="edgeStyle=none;endArrow=none;dashed=1" parent="1" edge="1">
          <mxGeometry x="2171.4411805555555" y="235" width="100" height="100" as="geometry">
            <mxPoint x="2219.87" y="140.00000000000023" as="sourcePoint" />
            <mxPoint x="2220.2799999999997" y="192" as="targetPoint" />
          </mxGeometry>
        </mxCell>
        <mxCell id="AhJz03Bt-B3YiPbpUyde-96" value="" style="fillColor=#CC4125;strokeColor=#660000" parent="1" vertex="1">
          <mxGeometry x="2215.5" y="192.56" width="10" height="347.44" as="geometry" />
        </mxCell>
        <mxCell id="AhJz03Bt-B3YiPbpUyde-97" value="Piecedeal Trade 새로운 Row 등록" style="edgeStyle=elbowEdgeStyle;elbow=vertical;verticalLabelPosition=top;verticalAlign=bottom;fontSize=16;" parent="1" edge="1">
          <mxGeometry x="2303" y="1.6599999999999966" width="100" height="100" as="geometry">
            <mxPoint x="2225.5000000000005" y="234.6600000000001" as="sourcePoint" />
            <mxPoint x="2590" y="235" as="targetPoint" />
            <Array as="points" />
          </mxGeometry>
        </mxCell>
        <mxCell id="AhJz03Bt-B3YiPbpUyde-98" value="" style="edgeStyle=none;endArrow=none;dashed=1" parent="1" edge="1">
          <mxGeometry x="2548.6411805555554" y="236.56" width="100" height="100" as="geometry">
            <mxPoint x="2597.0699999999997" y="141.56000000000023" as="sourcePoint" />
            <mxPoint x="2597" y="231" as="targetPoint" />
          </mxGeometry>
        </mxCell>
        <mxCell id="AhJz03Bt-B3YiPbpUyde-99" value="" style="fillColor=#CC4125;strokeColor=#660000" parent="1" vertex="1">
          <mxGeometry x="2592.5" y="232.56" width="10" height="77.44" as="geometry" />
        </mxCell>
        <mxCell id="AhJz03Bt-B3YiPbpUyde-100" value="응답" style="edgeStyle=elbowEdgeStyle;elbow=vertical;verticalLabelPosition=top;verticalAlign=bottom;exitX=0.5;exitY=1;exitDx=0;exitDy=0;fontSize=16;" parent="1" source="AhJz03Bt-B3YiPbpUyde-99" target="AhJz03Bt-B3YiPbpUyde-96" edge="1">
          <mxGeometry x="2457.5" y="167" width="100" height="100" as="geometry">
            <mxPoint x="2380.000000000001" y="400.0000000000001" as="sourcePoint" />
            <mxPoint x="2753" y="400.12" as="targetPoint" />
            <Array as="points" />
          </mxGeometry>
        </mxCell>
        <mxCell id="AhJz03Bt-B3YiPbpUyde-101" value="거래 진행 MQ 등록" style="edgeStyle=elbowEdgeStyle;elbow=vertical;verticalLabelPosition=top;verticalAlign=bottom;fontSize=16;" parent="1" edge="1">
          <mxGeometry x="2303" y="177" width="100" height="100" as="geometry">
            <mxPoint x="2225.500000000001" y="410.0000000000001" as="sourcePoint" />
            <mxPoint x="2970" y="410" as="targetPoint" />
            <Array as="points" />
          </mxGeometry>
        </mxCell>
        <mxCell id="AhJz03Bt-B3YiPbpUyde-102" value="" style="edgeStyle=none;endArrow=none;dashed=1;" parent="1" edge="1">
          <mxGeometry x="2928.7111805555555" y="238.12" width="100" height="100" as="geometry">
            <mxPoint x="2977.14" y="143.12000000000018" as="sourcePoint" />
            <mxPoint x="2977" y="410" as="targetPoint" />
          </mxGeometry>
        </mxCell>
        <mxCell id="AhJz03Bt-B3YiPbpUyde-103" value="" style="fillColor=#CC4125;strokeColor=#660000" parent="1" vertex="1">
          <mxGeometry x="2972.5" y="410" width="10" height="77.44" as="geometry" />
        </mxCell>
        <mxCell id="AhJz03Bt-B3YiPbpUyde-104" value="응답" style="edgeStyle=elbowEdgeStyle;elbow=vertical;verticalLabelPosition=top;verticalAlign=bottom;fontSize=16;" parent="1" edge="1">
          <mxGeometry x="2305.5" y="253.57000000000002" width="100" height="100" as="geometry">
            <mxPoint x="2972.5" y="486.57000000000005" as="sourcePoint" />
            <mxPoint x="2228.000000000001" y="486.57000000000005" as="targetPoint" />
            <Array as="points" />
          </mxGeometry>
        </mxCell>
        <mxCell id="AhJz03Bt-B3YiPbpUyde-105" value="응답" style="edgeStyle=elbowEdgeStyle;elbow=vertical;verticalLabelPosition=top;verticalAlign=bottom;fontSize=16;" parent="1" edge="1">
          <mxGeometry x="1928" y="307.18" width="100" height="100" as="geometry">
            <mxPoint x="2213.5" y="540.3" as="sourcePoint" />
            <mxPoint x="1850.5000000000005" y="540.1800000000001" as="targetPoint" />
            <Array as="points" />
          </mxGeometry>
        </mxCell>
        <mxCell id="AhJz03Bt-B3YiPbpUyde-106" value="" style="fillColor=#CC4125;strokeColor=#660000" parent="1" vertex="1">
          <mxGeometry x="1842.5" y="192.56" width="10" height="347.44" as="geometry" />
        </mxCell>
        <mxCell id="AhJz03Bt-B3YiPbpUyde-107" value="" style="edgeStyle=none;endArrow=none;dashed=1;" parent="1" edge="1">
          <mxGeometry x="1798.1611805555558" y="238" width="100" height="100" as="geometry">
            <mxPoint x="1846.5899999999997" y="143" as="sourcePoint" />
            <mxPoint x="1847" y="190" as="targetPoint" />
          </mxGeometry>
        </mxCell>
        <mxCell id="SZOiIeE2iXW8za4jXHJB-89" value="" style="fillColor=#DEE8FF;strokeColor=none" vertex="1" parent="1">
          <mxGeometry x="1650" y="900" width="1570" height="800" as="geometry" />
        </mxCell>
        <mxCell id="SZOiIeE2iXW8za4jXHJB-90" value="조각 거래 진행" style="rounded=1;fontStyle=1;fillColor=#FFD966;strokeColor=none" vertex="1" parent="1">
          <mxGeometry x="1660" y="905" width="150" height="30" as="geometry" />
        </mxCell>
        <mxCell id="SZOiIeE2iXW8za4jXHJB-91" value="Message&#xa;Queue" style="shadow=1;fillColor=#A2C4C9;strokeColor=none;fontSize=16;" vertex="1" parent="1">
          <mxGeometry x="1795" y="955" width="105" height="50" as="geometry" />
        </mxCell>
        <mxCell id="SZOiIeE2iXW8za4jXHJB-93" value="Backend" style="shadow=1;fillColor=#A2C4C9;strokeColor=none;fontSize=16;" vertex="1" parent="1">
          <mxGeometry x="2360" y="955" width="105" height="50" as="geometry" />
        </mxCell>
        <mxCell id="SZOiIeE2iXW8za4jXHJB-94" value="Database" style="shadow=1;fillColor=#A2C4C9;strokeColor=none;fontSize=16;" vertex="1" parent="1">
          <mxGeometry x="2925" y="955" width="105" height="50" as="geometry" />
        </mxCell>
        <mxCell id="SZOiIeE2iXW8za4jXHJB-109" value="" style="edgeStyle=none;endArrow=none;dashed=1;" edge="1" parent="1">
          <mxGeometry x="1800.0711805555559" y="1102" width="100" height="100" as="geometry">
            <mxPoint x="1848.5000000000002" y="1007" as="sourcePoint" />
            <mxPoint x="1848.91" y="1054" as="targetPoint" />
          </mxGeometry>
        </mxCell>
        <mxCell id="SZOiIeE2iXW8za4jXHJB-110" value="조각 거래 등록 요청" style="edgeStyle=elbowEdgeStyle;elbow=vertical;verticalLabelPosition=top;verticalAlign=bottom;fontSize=16;" edge="1" parent="1">
          <mxGeometry x="4417.5" y="1877.4099999999999" width="100" height="100" as="geometry">
            <mxPoint x="4340" y="2110.41" as="sourcePoint" />
            <mxPoint x="4703" y="2110.5299999999997" as="targetPoint" />
            <Array as="points" />
          </mxGeometry>
        </mxCell>
        <mxCell id="SZOiIeE2iXW8za4jXHJB-111" value="메시지 전달" style="edgeStyle=elbowEdgeStyle;elbow=vertical;verticalLabelPosition=top;verticalAlign=bottom;fontSize=16;" edge="1" parent="1">
          <mxGeometry x="1927" y="819" width="100" height="100" as="geometry">
            <mxPoint x="1849.5" y="1052" as="sourcePoint" />
            <mxPoint x="2407" y="1052" as="targetPoint" />
            <Array as="points" />
          </mxGeometry>
        </mxCell>
        <mxCell id="SZOiIeE2iXW8za4jXHJB-112" value="" style="edgeStyle=none;endArrow=none;dashed=1" edge="1" parent="1">
          <mxGeometry x="2363.4811805555555" y="1102" width="100" height="100" as="geometry">
            <mxPoint x="2411.91" y="1007.0000000000002" as="sourcePoint" />
            <mxPoint x="2412.3199999999997" y="1059" as="targetPoint" />
          </mxGeometry>
        </mxCell>
        <mxCell id="SZOiIeE2iXW8za4jXHJB-113" value="" style="fillColor=#CC4125;strokeColor=#660000" vertex="1" parent="1">
          <mxGeometry x="2407.5" y="1050" width="10" height="347.44" as="geometry" />
        </mxCell>
        <mxCell id="SZOiIeE2iXW8za4jXHJB-114" value="Piecdeal Trade" style="swimlane;fontStyle=0;childLayout=stackLayout;horizontal=1;startSize=26;fillColor=none;horizontalStack=0;resizeParent=1;resizeParentMax=0;resizeLast=0;collapsible=1;marginBottom=0;" vertex="1" parent="1">
          <mxGeometry x="2040" y="874" width="190" height="156" as="geometry" />
        </mxCell>
        <mxCell id="SZOiIeE2iXW8za4jXHJB-115" value="+ piecedeal_id: bigInteger" style="text;strokeColor=none;fillColor=none;align=left;verticalAlign=top;spacingLeft=4;spacingRight=4;overflow=hidden;rotatable=0;points=[[0,0.5],[1,0.5]];portConstraint=eastwest;" vertex="1" parent="SZOiIeE2iXW8za4jXHJB-114">
          <mxGeometry y="26" width="190" height="26" as="geometry" />
        </mxCell>
        <mxCell id="SZOiIeE2iXW8za4jXHJB-116" value="+ trade_type: string" style="text;strokeColor=none;fillColor=none;align=left;verticalAlign=top;spacingLeft=4;spacingRight=4;overflow=hidden;rotatable=0;points=[[0,0.5],[1,0.5]];portConstraint=eastwest;" vertex="1" parent="SZOiIeE2iXW8za4jXHJB-114">
          <mxGeometry y="52" width="190" height="26" as="geometry" />
        </mxCell>
        <mxCell id="SZOiIeE2iXW8za4jXHJB-117" value="+ trade_total_amount: bigInteger" style="text;strokeColor=none;fillColor=none;align=left;verticalAlign=top;spacingLeft=4;spacingRight=4;overflow=hidden;rotatable=0;points=[[0,0.5],[1,0.5]];portConstraint=eastwest;" vertex="1" parent="SZOiIeE2iXW8za4jXHJB-114">
          <mxGeometry y="78" width="190" height="26" as="geometry" />
        </mxCell>
        <mxCell id="SZOiIeE2iXW8za4jXHJB-119" value="+ trade_total_amount: bigInteger" style="text;strokeColor=none;fillColor=none;align=left;verticalAlign=top;spacingLeft=4;spacingRight=4;overflow=hidden;rotatable=0;points=[[0,0.5],[1,0.5]];portConstraint=eastwest;" vertex="1" parent="SZOiIeE2iXW8za4jXHJB-114">
          <mxGeometry y="104" width="190" height="26" as="geometry" />
        </mxCell>
        <mxCell id="SZOiIeE2iXW8za4jXHJB-118" value="+ quantity: integer" style="text;strokeColor=none;fillColor=none;align=left;verticalAlign=top;spacingLeft=4;spacingRight=4;overflow=hidden;rotatable=0;points=[[0,0.5],[1,0.5]];portConstraint=eastwest;" vertex="1" parent="SZOiIeE2iXW8za4jXHJB-114">
          <mxGeometry y="130" width="190" height="26" as="geometry" />
        </mxCell>
        <mxCell id="SZOiIeE2iXW8za4jXHJB-120" value="" style="fillColor=#CC4125;strokeColor=#660000" vertex="1" parent="1">
          <mxGeometry x="2978" y="1110" width="10" height="347.44" as="geometry" />
        </mxCell>
        <mxCell id="SZOiIeE2iXW8za4jXHJB-121" value="" style="edgeStyle=none;endArrow=none;dashed=1;entryX=0.5;entryY=0;entryDx=0;entryDy=0;" edge="1" parent="1" target="SZOiIeE2iXW8za4jXHJB-120">
          <mxGeometry x="2934.0711805555557" y="1100" width="100" height="100" as="geometry">
            <mxPoint x="2982.5" y="1005" as="sourcePoint" />
            <mxPoint x="2982.909999999999" y="1057" as="targetPoint" />
          </mxGeometry>
        </mxCell>
        <mxCell id="SZOiIeE2iXW8za4jXHJB-123" value="메시지 전달" style="edgeStyle=elbowEdgeStyle;elbow=vertical;verticalLabelPosition=top;verticalAlign=bottom;fontSize=16;" edge="1" parent="1">
          <mxGeometry x="2496.5" y="877" width="100" height="100" as="geometry">
            <mxPoint x="2419" y="1110" as="sourcePoint" />
            <mxPoint x="2976.5" y="1110" as="targetPoint" />
            <Array as="points" />
          </mxGeometry>
        </mxCell>
      </root>
    </mxGraphModel>
  </diagram>
</mxfile>
